{"title":"Watchmen (2009) 4K UltraHD BluRay (x265 HEVC 10bit) [Zeus]","uid":15822235,"size":83510744575,"categoryP":"video","categoryS":"hd___movies","magnet":"?xt=urn:btih:7071d4620bd0cbe61ab44088d120ae669a92ce9e&amp;dn=Watchmen+%282009%29+4K+UltraHD+BluRay+%28x265+HEVC+10bit%29+%5BZeus%5D&amp;tr=udp%3A%2F%2Ftracker.leechers-paradise.org%3A6969&amp;tr=udp%3A%2F%2Fzer0day.ch%3A1337&amp;tr=udp%3A%2F%2Fopen.demonii.com%3A1337&amp;tr=udp%3A%2F%2Ftracker.coppersurfer.tk%3A6969&amp;tr=udp%3A%2F%2Fexodus.desync.com%3A6969","seeders":9,"leechers":53,"uploader":"KATZeus","files":1,"time":1473784368,"description":"For early releases and exclusive content, visit my personal website: https://www.katzeus.com\r\n\r\nFormat                                   : Matroska\r\nFormat version                           : Version 2\r\nDuration                                 : 3h 0mn\r\nOverall bit rate                         : 61.6 Mbps\r\n\r\nVideo\r\nID                                       : 1\r\nFormat                                   : HEVC\r\nFormat profile                           : Main   @Main\r\nCodec ID                                 : V_MPEGH/ISO/HEVC\r\nBit rate                                 : 59.7 Mbps\r\nWidth                                    : 3 840 pixels\r\nHeight                                   : 2 160 pixels\r\nDisplay aspect ratio                     : 16:9\r\nFrame rate mode                          : Constant\r\nFrame rate                               : 23.976 (24000/1001) fps\r\nColor space                              : YUV\r\nChroma subsampling                       : 4:2:0\r\nBit depth                                : 10 bits\r\nBits/(Pixel*Frame)                       : 0.300\r\nStream size                              : 75.4 GiB (97%)\r\nColor range                              : Limited\r\nColor primaries                          : BT.709\r\nTransfer characteristics                 : BT.709\r\nMatrix coefficients                      : BT.601\r\n\r\nAudio\r\nID                                       : 2\r\nFormat                                   : AC-3\r\nCodec ID                                 : A_AC3\r\nDuration                                 : 3h 0mn\r\nBit rate mode                            : Constant\r\nBit rate                                 : 640 Kbps\r\nChannel(s)                               : 2 channels\r\nChannel positions                        : Front: L R\r\nSampling rate                            : 48.0 KHz\r\nFrame rate                               : 31.250 fps (1536 spf)\r\nCompression mode                         : Lossy\r\nDelay relative to video                  : -5ms\r\nStream size                              : 827 MiB (1%)","torrent":{"xt":"urn:btih:7071d4620bd0cbe61ab44088d120ae669a92ce9e","amp;dn":"Watchmen+%282009%29+4K+UltraHD+BluRay+%28x265+HEVC+10bit%29+%5BZeus%5D","amp;tr":["udp%3A%2F%2Ftracker.leechers-paradise.org%3A6969","udp%3A%2F%2Fzer0day.ch%3A1337","udp%3A%2F%2Fopen.demonii.com%3A1337","udp%3A%2F%2Ftracker.coppersurfer.tk%3A6969","udp%3A%2F%2Fexodus.desync.com%3A6969"],"infoHash":"7071d4620bd0cbe61ab44088d120ae669a92ce9e","infoHashBuffer":{"type":"Buffer","data":[112,113,212,98,11,208,203,230,26,180,64,136,209,32,174,102,154,146,206,158]},"announce":[],"urlList":[]}}